<?xml version="1.0" encoding="utf-8"?>
<!-- Generator: Adobe Illustrator 19.2.1, SVG Export Plug-In . SVG Version: 6.00 Build 0)  -->
<svg version="1.1" id="Layer_1" xmlns="http://www.w3.org/2000/svg" xmlns:xlink="http://www.w3.org/1999/xlink" x="0px" y="0px"
	 viewBox="0 0 520.8 421.6" style="enable-background:new 0 0 520.8 421.6;" xml:space="preserve">
<path d="M0,43.6C0,32.2,0,20.9,0,9.5C3.1,2.4,8.8,0,16.3,0c32.4,0.1,64.9-0.1,97.3,0.1c13.2,0.1,21.5,7,24.6,19.9
	c3,12.8,5.7,25.7,8.2,38.6c0.8,4.1,1.8,5.9,6.7,5.9c113.4-0.2,226.7-0.1,340.1-0.1c12.1,0,22.6,2.5,27.8,15.1c0,2.5,0,5,0,7.5
	c-0.2,0.3-0.6,0.6-0.7,1c-8.1,24.3-16.1,48.6-24.2,72.9c-7,21-13.9,42.1-20.9,63.1c-5.9,17.7-12,35.4-18,53.1
	c-2.5,7.2-7.4,11.6-15.2,12.2c-3.9,0.3-7.7,0.6-11.6,0.6c-73.6,0-147.2,0-220.9,0c-1.6,0-3.2,0-5.4,0c0.6,3.3,1.2,5.9,1.5,8.6
	c0.2,2.3,1.3,3,3.5,3.1c15.4,0.9,27.4,7.9,36.6,20.1c1,1.3,3.1,2.4,4.7,2.4c48.2,0.1,96.5,0.1,144.7,0c1.7,0,3.9-0.8,5-2.1
	c7.9-9.2,18-14.5,29.5-17.6c21.6-5.8,47.6,3.4,59.2,21.4c14.9,23,14.6,57.3-7.5,79.2c-22.4,22.2-58.8,22.1-80.5-0.8
	c-7.8-8.2-13.2-17.7-16.4-28.8c-1.8,0-3.4,0-5.1,0c-37.8,0-75.7,0-113.5,0c-0.8,0-1.8-0.2-2.5,0.1c-1,0.4-2.3,1.1-2.6,1.9
	c-5.7,16.2-16.4,27.9-31,36.4c-16.2,9.4-32.9,9.7-49.3,1.5c-32.3-16.2-43.9-57.5-24.2-87.8c4.7-7.3,4.8-13.1,3-20.5
	c-9.2-38.4-18.2-76.8-27.2-115.2c-10.8-45.7-21.5-91.4-32.2-137.1c-0.7-2.9-1.9-3.6-4.8-3.6c-23.3,0.1-46.6,0.1-69.9,0.1
	c-4.3,0-8.6-0.1-12.9-0.2C6.6,50.8,2.5,48.6,0,43.6z M203.7,383.8c11.9-0.1,21.9-10.2,21.7-22.1c-0.2-12-10.2-22-22.1-21.8
	c-11.9,0.1-21.9,10.2-21.7,22.2C181.7,374,191.7,383.8,203.7,383.8z M463.5,361.5c-0.1-11.8-10.2-21.6-21.9-21.5
	c-11.8,0.1-21.5,10.1-21.4,22c0.1,11.9,10.1,21.7,21.9,21.5C453.8,383.3,463.6,373.3,463.5,361.5z"/>
</svg>
