<?xml version="1.0" encoding="utf-8"?>
<!-- Generator: Adobe Illustrator 19.2.1, SVG Export Plug-In . SVG Version: 6.00 Build 0)  -->
<svg version="1.1" id="Layer_1" xmlns="http://www.w3.org/2000/svg" xmlns:xlink="http://www.w3.org/1999/xlink" x="0px" y="0px"
	 viewBox="0 0 359.3 359.3" style="enable-background:new 0 0 359.3 359.3;" xml:space="preserve">
<style type="text/css">
	.st0{fill:#FFFFFF;}
</style>
<g>
	<path class="st0" d="M179.7,198.2c9.2-8,18.1-15.8,27.1-23.7c25.1,28.1,50.1,56.1,75.3,84.3c-68.5,0-136.5,0-205,0
		c25.2-28.2,50.2-56.2,75.3-84.3C161.6,182.5,170.6,190.3,179.7,198.2z"/>
	<path class="st0" d="M78.4,91c67.8,0,134.8,0,202.5,0c-33.9,29.7-67.5,59.1-101.3,88.6C146,150.2,112.4,120.8,78.4,91z"/>
	<path class="st0" d="M217.3,165.3c24.8-21.7,49.3-43.2,74.2-64.9c0,49.4,0,98.3,0,147.9C266.6,220.5,242.1,193,217.3,165.3z"/>
	<path class="st0" d="M67.7,248.4c0-49.7,0-98.6,0-148.1c24.9,21.8,49.5,43.3,74.3,65C117.3,192.9,92.7,220.4,67.7,248.4z"/>
	<path class="st0" d="M350.3,179.7h-9c0,22.3-4.5,43.6-12.7,62.9c-12.3,29-32.8,53.7-58.6,71.1c-25.8,17.4-56.9,27.6-90.4,27.6
		c-22.3,0-43.6-4.5-62.9-12.7c-29-12.3-53.7-32.8-71.1-58.6S18,213.2,18,179.7c0-22.3,4.5-43.6,12.7-62.9C43,87.7,63.5,63,89.3,45.6
		S146.2,18,179.7,18c22.3,0,43.6,4.5,62.9,12.7c29,12.3,53.7,32.8,71.1,58.6s27.6,56.9,27.6,90.4H350.3h9c0-24.8-5-48.4-14.1-69.9
		c-13.6-32.3-36.4-59.7-65.1-79C251.5,11.3,216.8,0,179.7,0c-24.8,0-48.4,5-69.9,14.1c-32.3,13.6-59.7,36.4-79,65.1
		C11.3,107.9,0,142.5,0,179.7c0,24.8,5,48.4,14.1,69.9c13.6,32.3,36.4,59.7,65.1,79c28.7,19.4,63.3,30.7,100.5,30.7
		c24.8,0,48.4-5,69.9-14.1c32.3-13.6,59.7-36.4,79-65.1c19.4-28.7,30.7-63.3,30.7-100.5L350.3,179.7L350.3,179.7z"/>
</g>
</svg>
