<?xml version="1.0" encoding="utf-8"?>
<!-- Generator: Adobe Illustrator 19.2.1, SVG Export Plug-In . SVG Version: 6.00 Build 0)  -->
<svg version="1.1" id="Layer_1" xmlns="http://www.w3.org/2000/svg" xmlns:xlink="http://www.w3.org/1999/xlink" x="0px" y="0px"
	 viewBox="0 0 1920 1916" style="enable-background:new 0 0 1920 1916;" xml:space="preserve">
<g>
	<path d="M20,1163.5c16.3,80.1,43.3,156.4,81.5,228.7c44.8,84.8,102.5,160,170.4,227.5c65,64.7,136.8,120.3,217,164.9
		c129.2,71.7,268.2,108.2,415.3,115.3c53.8,2.6,107.6,1.5,161.3-3.7c44.3-4.3,88.2-11.3,131.5-21.6
		c124.5-29.5,237.9-82.8,340.1-159.9c88.4-66.6,164.9-144.8,227.7-236c86.1-125,134.9-263.6,149-414.5c4.8-50.7,5.4-101.5,2.5-152.3
		c-3.1-52.8-10.3-105-22.3-156.6c-25.6-110.4-71.7-211.5-137.3-303.8c-43-60.6-92.7-115.2-147.8-165
		c-66.3-59.8-139-110.3-219.2-149.7c-105.4-51.8-216.9-81.2-333.7-91.5c-57.7-5.1-115.5-5.5-173.3-1.5C827,47.7,771.9,55.9,717.6,69
		c-88.3,21.3-171.8,54.7-249.8,101.2c-119.2,71.1-219.3,163.4-301,275.5c-52.3,71.7-92.4,149.8-120.3,234
		C21.2,756,7,834.4,2.8,914.7C2.3,924.8,1.6,934.9,1,945c0,17.3,0,34.7,0,52c0.3,2.6,0.7,5.2,0.8,7.8
		C3.3,1058.2,9.4,1111.1,20,1163.5z M66.8,908.1c5.2-80.1,21-158,48.8-233.3c38-102.9,95.7-193.8,169.6-274.5
		c72.4-79,154.8-145.4,249.6-196c75.5-40.2,155.3-68.1,239.2-84.3c61.4-11.9,123.3-17.4,174.9-17.3c106.3,0,199.8,12.6,291,41.2
		c87.2,27.3,167.9,67.6,241.9,121c104.2,75.2,191.4,166.4,257.9,276.7c46.9,77.9,79.1,161.5,97.2,250.6
		c15.5,75.9,20.2,152.5,16.2,229.7c-4.3,83-19.8,163.8-48.2,242c-24.7,68.2-58.2,131.8-100.4,190.8
		c-71.9,100.5-159.9,184.3-264.1,250.7c-84.5,53.9-175.9,91.1-273.8,112.5c-82.3,18.1-165.7,24.2-249.8,20.8
		c-97.7-3.9-192.7-21.7-284.3-56.4c-111.2-42.1-208.8-105.7-295.1-187.1c-65-61.3-121.1-129.7-165.7-207.4
		c-42.9-74.7-72.7-154.3-89.8-238.6C65.9,1069.6,61.5,989.2,66.8,908.1z"/>
	<path d="M911.7,387.3c0,190.7,0,381.3-0.1,572c0,2.7-0.8,5.6-2.1,7.9c-11.9,20.8-24,41.5-36,62.3c-8.3,14.4-16.7,28.7-25,43.1
		c0.6,0.6,0.8,1.1,1.2,1.3c20,12.3,40,24.6,60,36.9c1.2,0.7,2.8,1.2,4.2,1.2c30.8,0.1,61.6,0.1,93.6,0.1c0-2.3,0-4.2,0-6.2
		c0-39-0.1-78,0.1-117c0-3.1,0.9-6.6,2.5-9.3c54.2-91.4,108.6-182.6,162.9-273.9c0.9-1.5,1.9-3,2.9-4.5c18.7,10.1,36.9,19.9,55.6,30
		c4.8-80.8,9.5-160.5,14.2-241.3c-69.9,44.6-138.9,88.7-208.5,133.2c19.1,10.8,37.2,21,55.6,31.5c-28.2,46.9-56.3,93.5-85,141.2
		c0-138.8,0-276.2,0-414.1c21,0,41.5,0,62.9,0C1033.7,309,996.8,237,959.6,164.3c-37.4,73-74.2,144.9-111.4,217.7
		c21.8,0,42.4,0,63.6,0C911.7,384,911.7,385.6,911.7,387.3z"/>
	<path d="M1687.9,1013.7c29.3,0,58.2,0,87.4,0c0-28.4,0-56.4,0-85c-29.4,0-58.3,0-87.4,0C1687.9,957.2,1687.9,985.4,1687.9,1013.7z"
		/>
	<path d="M230,928.6c-29.2,0-58.1,0-87.4,0c0,28.7,0,56.9,0,85.1c29.3,0,58.2,0,87.4,0C230,985.3,230,957.1,230,928.6z"/>
	<path d="M916,1761.5c29.3,0,58.2,0,87.4,0c0-28.4,0-56.4,0-85c-29.4,0-58.3,0-87.4,0C916,1705,916,1733.2,916,1761.5z"/>
	<path d="M231.7,1329.4c14.8,24.9,29.3,49.4,44,74.2c25.8-14.5,51.1-28.5,76.5-42.7c-14.8-24.9-29.4-49.4-44.1-74.1
		C282.5,1301,257.2,1315.1,231.7,1329.4z"/>
	<path d="M1687.5,1329.4c-25.7-14.4-51-28.5-76.5-42.7c-14.8,24.9-29.3,49.3-44,74.2c25.6,14.3,50.9,28.5,76.4,42.7
		C1658.3,1378.5,1672.8,1354.1,1687.5,1329.4z"/>
	<path d="M350.8,580.3c-25.8-14.4-51-28.5-76.4-42.7c-14.8,24.9-29.3,49.4-44,74.2c25.6,14.3,50.8,28.4,76.4,42.7
		C321.6,629.6,336.1,605,350.8,580.3z"/>
	<path d="M514,1634.8c25.7,14.3,50.9,28.4,76.4,42.7c14.7-24.8,29.2-49.3,44-74.1c-25.6-14.3-50.9-28.5-76.4-42.7
		C543.3,1585.6,528.8,1609.9,514,1634.8z"/>
	<path d="M1406.4,306.3c-25.7-14.4-50.8-28.4-76.4-42.7c-14.8,24.6-29.4,48.6-44,72.9c25.6,14.8,50.8,29.3,76.4,44
		C1377.1,355.6,1391.7,331.1,1406.4,306.3z"/>
	<path d="M633.2,336.5c-14.8-24.5-29.4-48.6-44-72.9c-25.7,14.4-50.8,28.4-76.5,42.7c14.9,24.6,29.4,48.6,44.1,72.9
		C582.4,364.8,607.7,350.7,633.2,336.5z"/>
	<path d="M1688.8,611.7c-14.8-24.9-29.3-49.4-44-74.2c-25.3,14.4-50.1,28.5-75.1,42.7c14.8,24.9,29.3,49.3,44,74.1
		C1638.7,640.2,1663.6,626.1,1688.8,611.7z"/>
	<path d="M1405.1,1634.8c-14.9-25-29.4-49.4-44-74.1c-25.2,14.3-49.8,28.3-75.1,42.7c14.8,24.9,29.4,49.5,44,74.1
		C1355.4,1663.1,1380.2,1649,1405.1,1634.8z"/>
</g>
</svg>
