<?xml version="1.0" encoding="utf-8"?>
<!-- Generator: Adobe Illustrator 19.2.1, SVG Export Plug-In . SVG Version: 6.00 Build 0)  -->
<svg version="1.1" xmlns="http://www.w3.org/2000/svg" xmlns:xlink="http://www.w3.org/1999/xlink" x="0px" y="0px"
	 viewBox="0 0 91.4 66.4" style="enable-background:new 0 0 91.4 66.4;" xml:space="preserve">
<style type="text/css">
	.st0{opacity:0.2;}
	.st1{fill:#FFFFFF;}
</style>
<g id="Layer_1">
</g>
<g id="Layer_1_copy">
	<g>
		<polygon class="st0" points="66.7,6 65.7,6 65.7,41 66.7,40.2 		"/>
		<polygon class="st0" points="24.7,41 24.7,40.2 8.9,26.7 22.6,6 21.6,6 7.9,26.7 		"/>
		<polygon class="st0" points="73.1,0 72.1,0 90.4,27.8 46.9,65 45.7,66 46.2,66.4 47.9,65 91.4,27.8 		"/>
		<polygon class="st0" points="45.7,58.1 38.9,52.3 38.9,31.5 37.9,31.5 37.9,52.3 45.2,58.6 		"/>
		<rect x="37.9" y="6" class="st0" width="1" height="15.9"/>
		<path class="st1" d="M90.4,27.8L72.1,0h-0.6h-1H49.6h-1h-2.4h-1H22.7h-1h-2.4h-1L0,27.8l45.2,38.6l0.5-0.4l1.2-1L90.4,27.8z
			 M65.7,6h1h2.1l0.2,0.4l13.4,20.3L69.1,38.2l-2.4,2l-1,0.9V6z M37.9,6h1h2.4h1h2.9h1h2.4h1h2.9v15.9H42.3h-1h-2.4h-1V6z
			 M37.9,31.5h1h2.4h1h10.2v20.8l-5.6,4.8l-1.2,1l-0.5,0.4l-7.3-6.2V31.5z M21.6,6h1h2.1v0.4v31.8v2V41L7.9,26.7L21.6,6z"/>
	</g>
</g>
</svg>
